<svg xmlns="http://www.w3.org/2000/svg" width="172" height="209"><defs/><path d="M11 207.008c-6.551-2.654-11.03-5.263-10.705-6.236.196-.59 2.3-2.209 4.674-3.597 2.375-1.389 4.653-3.199 5.063-4.022.928-1.861 3.074-12.146 3.65-17.496.238-2.2.942-5.031 1.566-6.292.913-1.844.785-2.883-.657-5.324-1.532-2.593-1.69-4.361-1.096-12.208 1.485-19.58 13.288-69.509 19.119-80.874 1.975-3.85 6.524-7.01 17.386-12.076 11.763-5.485 13.626-7.09 14.395-12.4.506-3.495.204-4.649-1.857-7.099-2.765-3.286-13.57-7.227-19.816-7.227-3.323 0-3.722-.274-3.722-2.55 0-3.714 2.21-7.342 7.672-12.591 4.84-4.653 17.683-13.86 19.334-13.86.484 0 2.511.963 4.505 2.14 3.572 2.107 3.704 2.112 8.86.36 9.473-3.22 21.16-.018 24.382 6.68 1.037 2.157 2.495 2.886 8.468 4.234 11.9 2.688 16.85 9.319 8.529 11.426-4.724 1.196-11.393 5.153-17.034 10.106-5.086 4.465-4.867 6.055.834 6.055 7.72 0 13.301 4.147 14.362 10.672.516 3.178 1.57 4.34 7.928 8.746 7.43 5.15 14.398 13.698 15.837 19.43.36 1.44.131 6.248-.51 10.686-1.688 11.676-1.545 15.134.65 15.708 1.5.392 1.849 1.628 1.999 7.073.1 3.629 1.082 10.46 2.183 15.18 2.253 9.665 2.566 18.301.835 23.089-1.078 2.98-.954 3.408 1.625 5.627 2.702 2.324 2.796 2.732 2.916 12.745l.125 10.344 4.814 2.6c7.476 4.038 12.33 8.568 13.053 12.185.352 1.76.177 3.76-.39 4.443-.622.749-4.887 1.47-10.754 1.816-5.348.317-12.198 1.07-15.223 1.674-3.025.605-12.7 1.349-21.5 1.653-16.677.578-24.22-.187-36.5-3.702-8.966-2.566-19.666-3.839-23.932-2.847-1.963.457-5.22.84-7.24.854-2.02.013-7.641 1.374-12.492 3.024-7.582 2.579-10.226 2.99-18.828 2.932-5.504-.037-11.133-.523-12.508-1.08zm27.167-2.701c2.383-1.018 6.808-2.418 9.833-3.111 3.025-.694 9.177-2.39 13.672-3.772 11.196-3.44 18.047-2.923 28.828 2.172 5.826 2.753 10.582 4.153 17.5 5.151 11.167 1.611 23.248 1.797 29.236.45 9.701-2.182 15.663-3.048 22.764-3.308 7.225-.263 7.511-.368 7.8-2.84.236-2.006-.668-3.363-4.124-6.195-2.434-1.994-5.72-4.18-7.3-4.855-1.582-.676-3.661-1.885-4.62-2.686-1.554-1.297-2.497-1.11-8.59 1.698-6.653 3.066-17.08 5.675-19.479 4.874-.653-.218 1.513-1.38 4.813-2.584 11.059-4.032 13.64-5.497 17.58-9.973 3.392-3.852 3.92-5.097 3.92-9.23 0-6.222-.644-7.706-4.127-9.507l-2.884-1.491 2.005-3.932c2.551-5 2.542-10.574-.038-22.482-1.125-5.19-2.163-11.47-2.307-13.956-.145-2.486-.484-4.741-.753-5.01-.27-.27-3.955 3.71-8.19 8.845-6.457 7.83-8.707 9.817-13.952 12.32-10.542 5.03-11.628 4.698-3.254-.996 5.146-3.499 10.175-8.079 14.095-12.836 7.69-9.332 8.405-10.727 8.405-16.388 0-2.543.514-7.738 1.143-11.546.98-5.935.905-7.547-.525-11.292C135.643 71.417 119 58.002 119 65.207c0 3.158-2.695 7.787-9.026 15.503-6.956 8.478-9.571 12.961-11.098 19.027-1.603 6.366.212 11.76 4.67 13.875 4.192 1.989 4.662 1.956 7.85-.552 2.147-1.689 2.951-1.86 4.135-.878 2.064 1.713 1.85 2.717-1.177 5.523-4.966 4.602-14.68 2.462-19.042-4.194-1.352-2.063-1.777-4.613-1.717-10.298.09-8.712 2.329-14.088 9.575-22.999 6.825-8.391 9.426-12.291 10.714-16.057 1.08-3.16.987-3.67-.948-5.245C110.34 56.801 109 57.43 109 60.756c0 5.926-8.297 15.941-16.387 19.78-1.836.871-3.905 2.267-4.598 3.102-.693.836-2.737 1.519-4.543 1.519-3.413 0-10.282 3.107-14.177 6.412-1.24 1.052-2.978 3.81-3.863 6.128-1.458 3.818-1.464 4.497-.063 7.206.99 1.913 3.633 4.054 7.338 5.94 5.904 3.006 7.8 5.799 4.734 6.975-.938.36-2.54.133-3.56-.503-1.02-.637-2.334-1.158-2.92-1.158-1.894 0-8.183-4.79-10.093-7.686-3.615-5.484-1.606-14.303 4.695-20.604 2.742-2.742 14.048-8.71 16.501-8.71.703 0 2.014-.666 2.912-1.479 1.671-1.512 1.501-6.69-.506-15.427-.525-2.285-.44-3.194.259-2.762 1.097.679 2.048 4.374 2.936 11.418.592 4.692 1.86 5.262 5.87 2.635 3.87-2.536 3.357-7.695-1.513-15.23-2.714-4.199-4.621-6.155-6-6.155-1.41 0-2.043.68-2.09 2.25l-.067 2.25-1.086-2.25c-.596-1.238-1.624-2.25-2.284-2.25-2.749 0-7.857 4.718-9.384 8.667-.886 2.292-1.949 4.504-2.361 4.916-1.603 1.603-.644-5.368 1.25-9.083 1.1-2.158 2-4.053 2-4.212 0-.158-.9-.288-2-.288s-2 .505-2 1.122c0 .824-.364.82-1.367-.012-1.046-.868-1.693-.743-2.75.533-.76.917-6.802 4.272-13.426 7.454-6.623 3.183-12.752 6.6-13.618 7.595-6.311 7.238-20.362 64.454-21.08 85.84l-.26 7.685 3.696 3.141c3.195 2.717 6.399 4.335 16.305 8.235 1.805.71 1.738.824-.688 1.158-1.613.222-5.336-.908-9.314-2.826-7.346-3.543-8.511-3.255-9.096 2.247-.195 1.83-.79 5.128-1.321 7.328-2.097 8.671-2.11 11.976-.06 15.802 2.156 4.021 1.051 4.976-2.58 2.23-2.471-1.87-4.551-1.903-6.998-.114-2.38 1.74-1.943 2.213 4.2 4.546 6.896 2.62 22.584 2.722 28.524.186zm-8.749-18.119c-2.263-.916-7.418-6.585-7.418-8.159 0-.535 1.43.363 3.179 1.997 1.748 1.634 5.135 3.519 7.525 4.188 2.391.67 4.587 1.605 4.88 2.08.676 1.092-5.398 1.014-8.166-.106zm74.15-125.54c.96-5.121-1.356-8.166-6.594-8.665-2.268-.216-4.32-.076-4.559.31-.239.388.92 3.173 2.575 6.19 1.656 3.015 3.024 6.764 3.042 8.329l.031 2.845 2.424-2.754c1.333-1.515 2.72-4.33 3.08-6.255zm9.774-5.167c.884-.884-3.3-5.324-5.016-5.324-1.885 0-1.649 1.027.848 3.685 2.291 2.439 3.065 2.743 4.168 1.639zm3.341-1.512c-.32-.797-.556-.56-.604.604-.043 1.055.193 1.645.525 1.313.332-.332.368-1.195.08-1.917zm-14.321-4.312c-.317-.825-1.033-1.5-1.591-1.5-.586 0-.489.635.229 1.5.685.825 1.4 1.5 1.591 1.5.19 0 .087-.675-.23-1.5zM90 49.157c0-.61-4.52-1-11.559-1-7.451 0-11.34.355-10.941 1 .351.568 5.344 1 11.559 1 6.627 0 10.941-.394 10.941-1zm-12-4.76c0-.966-2.25-8.367-5-16.445s-5-15.386-5-16.241c0-3.4 1.795-1.15 5.739 7.196 2.995 6.339 4.506 11.23 5.481 17.75 1.295 8.658 1.45 9.012 4.063 9.316 2.58.3 2.717.103 2.717-3.95 0-4.235 1.361-4.459 2.23-.366.32 1.504 1.055.636 2.963-3.5 2.899-6.284 5.75-9.243 11.039-11.452 5.921-2.475 7.736-1.791 2.768 1.043-6.23 3.553-7.847 5.181-10.666 10.74-4.47 8.814-2.506 8.86 6.179.142 7.29-7.317 12.17-10.498 19.737-12.863 4.794-1.499-1.063-5.61-10.73-7.531-6.062-1.205-6.703-1.582-8.006-4.701-2.386-5.71-12.652-8.465-21.35-5.729-5.03 1.582-5.628 1.58-10.165-.053-4.809-1.729-4.832-1.727-8.66.765-11.16 7.261-21.483 17.978-19.855 20.613.349.564 2.115 1.026 3.926 1.026 9.074 0 19 5.656 21.499 12.25C68.277 46.018 70 45.922 70 42.235c0-2.193-1.043-3.815-4.18-6.5-2.299-1.968-4.774-3.578-5.5-3.578s-1.32-.45-1.32-1c0-1.505 1.538-1.22 5.72 1.064 4.196 2.29 7.28 5.46 7.28 7.482 0 .728.439 2.478.975 3.889 1.138 2.992 5.025 3.616 5.025.806zM55.813 29.475c.721-.29 1.584-.254 1.916.079.332.332-.258.568-1.312.525-1.165-.048-1.402-.285-.604-.604z"/></svg>