<?xml version="1.0" ?>
<!-- Uploaded to: SVG Repo, www.svgrepo.com, Generator: SVG Repo Mixer Tools -->
<svg width="800px" height="800px" viewBox="0 0 512 512" id="Layer_1" version="1.1" xml:space="preserve" xmlns="http://www.w3.org/2000/svg" xmlns:xlink="http://www.w3.org/1999/xlink">
<style type="text/css">
	.st0{fill:#3B4652;}
	.st1{fill:#2B79C2;}
</style>
<g>
<path class="st0" d="M382.7,71.8H82.4l-2.2,21.8h86.4c11.6,0,21,9.4,21,21s-9.4,21-21,21H76l-6.1,61.7h96.7c11.6,0,21,9.4,21,21   s-9.4,21-21,21H65.7l-6.1,61.7h107c11.6,0,21,9.4,21,21c0,11.6-9.4,21-21,21H55.4l-6,60.2h20.2c0-28.1,22.8-50.9,50.9-50.9   s50.9,22.8,50.9,50.9h178.3L369.2,208L382.7,71.8z M166.6,291.2h-55.3c-11.6,0-21-9.4-21-21c0-11.6,9.4-21,21-21h55.3   c11.6,0,21,9.4,21,21C187.6,281.8,178.2,291.2,166.6,291.2z M166.6,187.5h-55.3c-11.6,0-21-9.4-21-21c0-11.6,9.4-21,21-21h55.3   c11.6,0,21,9.4,21,21C187.6,178,178.2,187.5,166.6,187.5z"/>
<path class="st0" d="M437.8,208h-54.5l-0.1,1.4l-19.2,193.9h4.8c0-28.1,22.8-50.9,50.9-50.9c28.1,0,50.9,22.8,50.9,50.9h18.9v-129   L437.8,208z M457.6,299.3h-69.2l7.9-59.6h25.8l35.4,45.4V299.3z"/>
<path class="st1" d="M419.7,366.3c-20.4,0-36.9,16.5-36.9,36.9c0,20.4,16.5,36.9,36.9,36.9c20.4,0,36.9-16.5,36.9-36.9   C456.6,382.9,440,366.3,419.7,366.3z"/>
<circle class="st1" cx="120.6" cy="403.3" r="36.9"/>
<path class="st1" d="M29.6,121.6h137c3.9,0,7-3.1,7-7s-3.1-7-7-7h-137c-3.9,0-7,3.1-7,7S25.7,121.6,29.6,121.6z"/>
<path class="st1" d="M166.6,159.5h-55.3c-3.9,0-7,3.1-7,7s3.1,7,7,7h55.3c3.9,0,7-3.1,7-7S170.5,159.5,166.6,159.5z"/>
<path class="st1" d="M29.6,225.3h137c3.9,0,7-3.1,7-7s-3.1-7-7-7h-137c-3.9,0-7,3.1-7,7S25.7,225.3,29.6,225.3z"/>
<path class="st1" d="M166.6,263.2h-55.3c-3.9,0-7,3.1-7,7s3.1,7,7,7h55.3c3.9,0,7-3.1,7-7S170.5,263.2,166.6,263.2z"/>
<path class="st1" d="M173.6,322.1c0-3.9-3.1-7-7-7h-137c-3.9,0-7,3.1-7,7s3.1,7,7,7h137C170.5,329.1,173.6,325.9,173.6,322.1z"/>
</g>
</svg>